<?xml version="1.0" encoding="UTF-8"?>
<svg width="100px" height="100px" viewBox="0 0 100 100" version="1.1" xmlns="http://www.w3.org/2000/svg" xmlns:xlink="http://www.w3.org/1999/xlink">
    <title>编组 9备份</title>
    <g id="页面-1" stroke="none" stroke-width="1" fill="none" fill-rule="evenodd">
        <g id="编组-9备份">
            <rect id="矩形" x="0" y="0" width="100" height="100"></rect>
            <g id="DiscordIcon" transform="translate(4.166667, 16.666667)" fill="#FFFFFF">
                <path d="M78.9666668,7.39026785 C71.0333333,1.11375033 58.4833333,0.0519488755 57.9499999,0.00685306071 C57.1124999,-0.0628404715 56.3166667,0.404516155 55.975,1.15884615 C55.95,1.20804158 55.675,1.82708413 55.3708332,2.79049472 C60.6166666,3.65961406 67.0625001,5.41425121 72.8958334,8.97682061 C73.8291666,9.54666773 74.1166666,10.7560555 73.5375001,11.6784699 C73.1625,12.2770143 72.5083333,12.6049839 71.8416667,12.6049839 C71.4833335,12.6049839 71.1208334,12.5106926 70.7916666,12.3098113 C60.7666666,6.19317894 48.2416666,5.88570748 45.8333333,5.88570748 C43.4250001,5.88570748 30.8958332,6.19317894 20.8791667,12.3098113 C19.9416667,12.883758 18.7166667,12.5967846 18.1333333,11.6784699 C17.55,10.7560555 17.8416667,9.55076733 18.775,8.97682061 C24.6083333,5.41835085 31.0500001,3.65961406 36.3,2.79049472 C35.9916666,1.82298452 35.7166666,1.20804158 35.6958333,1.15884615 C35.35,0.404516155 34.5583333,-0.0710397103 33.7166668,0.0109526803 C33.1874999,0.0519488755 20.6375,1.11375033 12.5958333,7.48045945 C8.39583333,11.2972052 0,33.6319324 0,52.9411406 C0,53.2814088 0.0916666667,53.6175776 0.2625,53.9127503 C6.05833333,63.9281209 21.8666667,66.5518773 25.4708333,66.6666667 C25.4916667,66.6666667 25.5125,66.6666667 25.5333333,66.6666667 C26.1708333,66.6666667 26.7708333,66.3673945 27.1458333,65.8590415 L30.7916666,60.9312991 C20.9625,58.4305309 15.9416667,54.1874248 15.65,53.9373479 C14.825,53.2199145 14.7458333,51.9818294 15.475,51.1701048 C16.2041667,50.3583803 17.4583333,50.2804873 18.2833333,50.9938212 C18.4041667,51.1004112 27.65,58.8199948 45.8333333,58.8199948 C64.0500001,58.8199948 73.2958334,51.0676142 73.3875001,50.9897215 C74.2125001,50.284587 75.4708335,50.3583803 76.1958334,51.1742045 C76.9208333,51.9859291 76.8416666,53.2199145 76.0208335,53.9332485 C75.7291666,54.1874248 70.7083334,58.4264315 60.8791666,60.9271994 L64.5249999,65.8549421 C64.9,66.3632948 65.5,66.662567 66.1375,66.662567 C66.1583334,66.662567 66.1791668,66.662567 66.1999999,66.662567 C69.8041667,66.5518773 85.6125001,63.9281209 91.4083332,53.9086506 C91.575,53.6134782 91.6666667,53.2814088 91.6666667,52.9411406 C91.6666667,33.6319324 83.2708333,11.2972052 78.9666668,7.39026785 Z M32.8791665,45.0985682 C29.0291667,45.0985682 25.9041667,41.5851942 25.9041667,37.2559961 C25.9041667,32.9267979 29.025,29.413424 32.8791665,29.413424 C36.7333334,29.413424 39.8541666,32.9267979 39.8541666,37.2559961 C39.8541666,41.5851942 36.7333334,45.0985682 32.8791665,45.0985682 Z M58.7875001,45.0985682 C54.9375001,45.0985682 51.8125001,41.5851942 51.8125001,37.2559961 C51.8125001,32.9267979 54.9333333,29.413424 58.7875001,29.413424 C62.6375001,29.413424 65.7624999,32.9267979 65.7624999,37.2559961 C65.7624999,41.5851942 62.6375001,45.0985682 58.7875001,45.0985682 Z" id="形状"></path>
            </g>
        </g>
    </g>
</svg>