<?xml version="1.0" encoding="UTF-8"?>
<svg width="100px" height="100px" viewBox="0 0 100 100" version="1.1" xmlns="http://www.w3.org/2000/svg" xmlns:xlink="http://www.w3.org/1999/xlink">
    <title>编组 7备份</title>
    <g id="页面-1" stroke="none" stroke-width="1" fill="none" fill-rule="evenodd">
        <g id="编组-7备份" fill="#FFFFFF" fill-rule="nonzero">
            <g id="twitter备份">
                <rect id="矩形" opacity="0" x="0" y="0" width="100" height="100"></rect>
                <path d="M90.625,29.000651 C87.6367187,30.2897135 84.3847656,31.2174479 81.0351562,31.578776 C84.4921875,29.5182292 87.1191406,26.266276 88.359375,22.3990885 C85.1660156,24.3033854 81.5527344,25.6998698 77.7929687,26.422526 C74.7460937,23.1705729 70.4199219,21.1588542 65.625,21.1588542 C56.3964844,21.1588542 48.9746094,28.6393229 48.9746094,37.8190104 C48.9746094,39.1080729 49.1308594,40.3971354 49.3847656,41.6373698 C35.5664062,40.9147135 23.2421875,34.313151 15.0488281,24.2057292 C13.6035156,26.6861979 12.7832031,29.5182292 12.7832031,32.6139323 C12.7832031,38.3951823 15.7226562,43.4928385 20.2050781,46.4908854 C17.4707031,46.3834635 14.8925781,45.6119792 12.6757812,44.3717448 L12.6757812,44.5768229 C12.6757812,52.672526 18.3984375,59.3815104 26.0253906,60.9244792 C24.6289062,61.2858073 23.1347656,61.4908854 21.640625,61.4908854 C20.5566406,61.4908854 19.53125,61.3834635 18.4960937,61.2369792 C20.6054687,67.8385417 26.7480469,72.6334635 34.0625,72.7897135 C28.3398437,77.2721354 21.171875,79.9088542 13.3886719,79.9088542 C11.9921875,79.9088542 10.703125,79.860026 9.36523437,79.703776 C16.7480469,84.4401042 25.5078125,87.1744792 34.9414062,87.1744792 C65.5664062,87.1744792 82.3242187,61.8033854 82.3242187,39.781901 C82.3242187,39.0592448 82.3242187,38.3365885 82.2753906,37.6139323 C85.5175781,35.2408854 88.359375,32.3014323 90.625,29.000651 Z" id="路径"></path>
            </g>
        </g>
    </g>
</svg>