<?xml version="1.0" encoding="UTF-8"?>
<svg width="30px" height="30px" viewBox="0 0 30 30" version="1.1" xmlns="http://www.w3.org/2000/svg" xmlns:xlink="http://www.w3.org/1999/xlink">
    <title>形状</title>
    <g id="English页面" stroke="none" stroke-width="1" fill="none" fill-rule="evenodd">
        <g id="没网提示" transform="translate(-481.000000, -1874.000000)" fill="#FFFFFF" fill-rule="nonzero">
            <g id="编组-13备份-5" transform="translate(392.000000, 1874.000000)">
                <g id="gantanhao" transform="translate(89.000000, 0.000000)">
                    <path d="M15,30 C6.71578125,30 0,23.2842187 0,15 C0,6.71578125 6.71578125,0 15,0 C23.2842187,0 30,6.71578125 30,15 C30,23.2842187 23.2842187,30 15,30 Z M16.40625,7.03125 C16.40625,6.25453125 15.7767187,5.625 15,5.625 C14.2232812,5.625 13.59375,6.25453125 13.59375,7.03125 L13.59375,17.34375 C13.59375,18.1204687 14.2232812,18.75 15,18.75 C15.7767187,18.75 16.40625,18.1204687 16.40625,17.34375 L16.40625,7.03125 Z M15,21.5625 C14.2232812,21.5625 13.59375,22.1920313 13.59375,22.96875 C13.59375,23.7454687 14.2232812,24.375 15,24.375 C15.7767187,24.375 16.40625,23.7454687 16.40625,22.96875 C16.40625,22.1920313 15.7767187,21.5625 15,21.5625 Z" id="形状"></path>
                </g>
            </g>
        </g>
    </g>
</svg>